<?xml version="1.0" encoding="UTF-8"?>
<!DOCTYPE svg PUBLIC "-//W3C//DTD SVG 1.1//EN" "http://www.w3.org/Graphics/SVG/1.1/DTD/svg11.dtd">
<svg version="1.1" xmlns="http://www.w3.org/2000/svg" xmlns:xlink="http://www.w3.org/1999/xlink" x="0" y="0" width="212.9" height="289.3" viewBox="0, 0, 212.9, 289.3">
  <defs>
    <clipPath id="Clip_1">
      <path d="M173.1,208 C166.8,201 161.1,190.6 159.9,180.9 C160.3,180.9 160.3,180.6 160.7,180.5 C163.8,184.8 163.8,192.2 167.9,195.6 C166.9,191.4 163.7,185.5 162.6,180.9 C173.2,183.5 175.8,194.2 175.8,205.5 C175.8,205.7 175.8,207.9 175.8,208.2 C175.8,208.1 177.2,215.7 173.1,208 z M20.8,189.6 C20.5,191.3 21,205.3 17.9,214.6 C17,217.3 20.1,219.1 19.7,224.5 C19.1,232 15.8,247.1 16.8,266.8 L16.2,282.6 L139.5,287.1 L172.5,284.3 C172.2,283.6 172.1,282.9 172,282.2 C171.8,280.8 172,279.4 172.5,278.8 C170.8,275 172.5,269.9 171.7,266.4 C171.6,265.6 170.7,266.9 169.8,266.4 C170,265.4 171.4,265.8 171.7,264.9 C172,247.6 174,230.2 174.3,215.5 C174,214.2 175.8,215 175.4,213.6 C175.3,213.1 174.5,213.3 173.9,213.2 C166.5,204 161.6,192.3 157.7,179.7 C154.1,179 150,178.8 146.4,178.2 C145.8,178.4 145.3,178.1 144.5,177.8 C142.3,178.8 139.1,177.8 137.3,178.6 C135.4,179.4 131.8,182.5 131.3,182.7 C129.4,183.6 128.5,185.7 126.8,187.2 C122,191.4 115.9,195 111.3,200 C103.4,204.5 95.4,212.3 83.4,212.4 C77.5,212.5 68.6,211.1 63.8,207.5 C55.7,201.5 47.3,178.8 55.5,167.2 C46.5,169 37.6,166.9 30.5,171.6 C26.8,174 26.6,175.2 22.7,182.4 L20.8,189.6 z"/>
    </clipPath>
  </defs>
  <g id="Layer_1">
    <g>
      <g>
        <path d="M49.6,168.1 C49.6,168.1 66.6,165.7 67.8,153.8 C69,142 63.5,121.6 56.6,107.6 C49.6,93.6 49.9,86.9 62.1,61.1 C74.3,35.3 91.6,10.1 113.7,17.4 C135.9,24.7 164.1,38.7 165.3,61.1 C166.5,83.6 154.4,114 154.4,114 C148.9,125.5 144.4,133.7 139.5,142.6 C134.6,151.4 121.6,147.8 118.8,153.8 C116.1,159.9 116.7,167.2 118.2,170.5 C119.7,173.8 125.2,177.2 129.1,177.8 C133.1,178.4 137.9,176.9 137.9,179.3 C137.9,181.7 134.6,202.7 112.4,212.1 C90.2,221.5 55,223.6 50.1,206 C45.3,188.5 49.6,168.1 49.6,168.1 z" fill="#FEEDE5"/>
        <path d="M74.4,128 C74.4,128 74.9,135.2 79.4,143.4 C83.9,151.6 91.1,158.8 97.3,159.4 C103.5,160.1 114.7,152.2 114.7,152.2 L116.9,145.7 C116.9,145.7 112.1,147.9 104,150.7 C97.2,153.1 93.6,148.5 87.6,143.7 C79.9,137.5 73.4,123.8 73.4,123.8" fill="#FDC59E"/>
        <g>
          <path d="M173.1,208 C166.8,201 161.1,190.6 159.9,180.9 C160.3,180.9 160.3,180.6 160.7,180.5 C163.8,184.8 163.8,192.2 167.9,195.6 C166.9,191.4 163.7,185.5 162.6,180.9 C173.2,183.5 175.8,194.2 175.8,205.5 C175.8,205.7 175.8,207.9 175.8,208.2 C175.8,208.1 177.2,215.7 173.1,208 z" fill="#FFFFFF"/>
          <path d="M22.7,182.4 C26.5,175.2 26.8,174.1 30.5,171.6 C37.6,166.9 46.5,168.9 55.5,167.2 C47.3,178.9 55.7,201.5 63.8,207.5 C68.6,211.1 77.5,212.5 83.4,212.4 C95.4,212.2 103.4,204.4 111.3,200 C115.8,195 122,191.3 126.8,187.2 C128.5,185.7 129.4,183.6 131.3,182.7 C131.9,182.4 135.4,179.3 137.3,178.6 C139,177.9 142.3,178.8 144.5,177.8 C145.3,178.1 145.8,178.3 146.4,178.2 C150,178.8 154.1,179 157.7,179.7 C161.6,192.4 166.5,204 173.9,213.2 C174.5,213.3 175.3,213.1 175.4,213.6 C175.8,215 174,214.2 174.3,215.5 C174,230.2 172,247.5 171.7,264.9 C171.4,265.8 170,265.4 169.8,266.4 C170.7,266.9 171.6,265.6 171.7,266.4 C172.5,269.9 170.7,275.1 172.5,278.8 C172,279.4 171.8,280.8 172,282.2 C172.1,282.9 172.3,283.6 172.5,284.3 L139.5,287.1 L16.2,282.6 L16.8,266.8 C15.8,247.1 19.1,232 19.7,224.5 C20.1,219.1 17,217.4 17.9,214.6 C21,205.3 20.6,191.3 20.8,189.6 L22.7,182.4 z" fill="#FFFFFF"/>
        </g>
        <g>
          <path d="M101,115 L93.5,114.7 C93.5,114.7 89.7,118.5 92.7,125 C95.7,131.5 97.2,134 101,135.5 C104.8,137 110.8,135.5 114.3,132.7 C117.8,129.9 121.1,122.6 121.1,122.6 C121.1,122.6 117.5,119.4 113.5,118.6 C109.5,118 101,115 101,115 z" fill="#FCB3A5"/>
          <path d="M91.4,119.3 C91.4,119.3 96.6,119.8 97.7,119.8 C98.8,119.8 105.5,120.1 110.7,122.3 C116,124.6 120,124.3 120,124.3 L120,122.3 C120,122.3 118.4,120 114.5,119 C110.6,118.1 105.5,116.2 102,115.7 C98.5,115.2 92.7,114.7 92.7,114.7 L91.4,119.3 z" fill="#FFFFFF"/>
        </g>
        <g opacity="0.64">
          <g clip-path="url(#Clip_1)">
            <g>
              <path d="M209.3,127.9 C130.1,139.2 49.7,139.2 -29.5,127.9 C-29.4,127 -29.2,126.1 -29.1,125.3 C49.8,136.5 130,136.5 208.9,125.3 C209,126.2 209.2,127.1 209.3,127.9 z" fill="#01A0C6"/>
              <path d="M210.6,137.2 C130.5,148.6 49.3,148.6 -30.8,137.2 C-30.7,136.3 -30.5,135.4 -30.4,134.6 C49.4,146 130.4,146 210.2,134.6 C210.4,135.4 210.5,136.3 210.6,137.2 z" fill="#FF4000"/>
              <path d="M211.9,146.4 C131,157.9 48.8,157.9 -32.1,146.4 C-32,145.5 -31.8,144.6 -31.7,143.8 C49,155.3 130.9,155.3 211.6,143.8 C211.7,144.7 211.8,145.5 211.9,146.4 z" fill="#01A0C6"/>
              <path d="M213.2,155.7 C131.4,167.3 48.4,167.3 -33.4,155.7 C-33.3,154.8 -33.2,153.9 -33,153.1 C48.6,164.7 131.3,164.7 212.9,153.1 C213,153.9 213.1,154.8 213.2,155.7 z" fill="#FF4000"/>
              <path d="M214.6,164.9 C131.9,176.7 48,176.7 -34.7,164.9 C-34.6,164 -34.4,163.1 -34.3,162.3 C48.1,174 131.8,174 214.2,162.3 C214.3,163.1 214.4,164 214.6,164.9 z" fill="#01A0C6"/>
              <path d="M215.9,174.1 C132.4,186 47.5,186 -36,174.1 C-35.9,173.2 -35.7,172.3 -35.6,171.5 C47.7,183.4 132.3,183.4 215.6,171.5 C215.6,172.4 215.7,173.3 215.9,174.1 z" fill="#FF4000"/>
              <path d="M217.2,183.4 C132.8,195.4 47.1,195.4 -37.3,183.4 C-37.2,182.5 -37,181.6 -36.9,180.8 C47.3,192.8 132.7,192.8 216.9,180.8 C216.9,181.6 217.1,182.5 217.2,183.4 z" fill="#01A0C6"/>
              <path d="M218.5,192.6 C133.2,204.7 46.6,204.7 -38.7,192.6 C-38.6,191.7 -38.4,190.8 -38.3,190 C46.7,202.1 133.1,202.1 218.1,190 C218.3,190.9 218.4,191.7 218.5,192.6 z" fill="#FF4000"/>
              <path d="M219.8,201.9 C133.6,214.2 46.2,214.2 -40,201.9 C-39.9,201 -39.7,200.1 -39.6,199.3 C46.3,211.5 133.5,211.5 219.4,199.3 C219.6,200.1 219.7,201 219.8,201.9 z" fill="#01A0C6"/>
              <path d="M221.1,211.1 C134.1,223.5 45.7,223.5 -41.3,211.1 C-41.2,210.2 -41,209.3 -40.9,208.5 C45.9,220.9 134,220.9 220.8,208.5 C220.9,209.3 221,210.2 221.1,211.1 z" fill="#FF4000"/>
              <path d="M222.4,220.3 C134.5,232.8 45.3,232.8 -42.7,220.3 C-42.6,219.4 -42.4,218.5 -42.3,217.7 C45.4,230.2 134.3,230.2 222,217.7 C222.2,218.6 222.3,219.5 222.4,220.3 z" fill="#01A0C6"/>
              <path d="M223.8,229.6 C135,242.2 44.9,242.2 -43.9,229.6 C-43.8,228.7 -43.6,227.8 -43.5,227 C45,239.6 134.9,239.6 223.4,227 C223.5,227.8 223.6,228.7 223.8,229.6 z" fill="#FF4000"/>
              <path d="M225.1,238.8 C135.4,251.6 44.4,251.6 -45.2,238.8 C-45.1,237.9 -44.9,237 -44.8,236.2 C44.6,248.9 135.4,248.9 224.8,236.2 C224.8,237.1 225,237.9 225.1,238.8 z" fill="#01A0C6"/>
              <path d="M226.4,248.1 C135.9,261 44,261 -46.5,248.1 C-46.4,247.2 -46.2,246.3 -46.1,245.5 C44.2,258.3 135.8,258.3 226.1,245.5 C226.1,246.3 226.3,247.2 226.4,248.1 z" fill="#FF4000"/>
              <path d="M227.7,257.3 C136.3,270.3 43.5,270.3 -47.9,257.3 C-47.8,256.4 -47.6,255.5 -47.5,254.7 C43.6,267.7 136.2,267.7 227.3,254.7 C227.5,255.5 227.6,256.4 227.7,257.3 z" fill="#01A0C6"/>
              <path d="M229,266.5 C136.7,279.6 43.1,279.6 -49.2,266.5 C-49.1,265.6 -48.9,264.7 -48.8,263.9 C43.2,277 136.6,277 228.7,263.9 C228.8,264.8 228.9,265.7 229,266.5 z" fill="#FF4000"/>
              <path d="M230.3,275.8 C137.2,289.1 42.6,289.1 -50.5,275.8 C-50.4,274.9 -50.2,274 -50.1,273.2 C42.8,286.4 137.1,286.4 230,273.2 C230.1,274 230.2,274.9 230.3,275.8 z" fill="#01A0C6"/>
              <path d="M231.7,285 C137.7,298.4 42.2,298.4 -51.8,285 C-51.7,284.1 -51.5,283.2 -51.4,282.4 C42.4,295.7 137.5,295.7 231.3,282.4 C231.4,283.3 231.5,284.1 231.7,285 z" fill="#FF4000"/>
              <path d="M233,294.3 C138.1,307.8 41.8,307.8 -53.1,294.3 C-53,293.4 -52.8,292.5 -52.7,291.7 C41.9,305.2 138,305.2 232.6,291.7 C232.7,292.5 232.8,293.4 233,294.3 z" fill="#01A0C6"/>
              <path d="M234.3,303.5 C138.5,317.1 41.3,317.1 -54.4,303.5 C-54.3,302.6 -54.1,301.7 -54,300.9 C41.5,314.5 138.5,314.5 234,300.9 C234,301.7 234.2,302.6 234.3,303.5 z" fill="#FF4000"/>
              <path d="M235.6,312.7 C139,326.5 40.9,326.5 -55.8,312.7 C-55.7,311.8 -55.5,310.9 -55.4,310.1 C41,323.8 138.8,323.8 235.2,310.1 C235.4,311 235.5,311.9 235.6,312.7 z" fill="#01A0C6"/>
              <path d="M236.9,322 C139.4,335.9 40.4,335.9 -57.1,322 C-57,321.1 -56.8,320.2 -56.7,319.4 C40.6,333.2 139.3,333.2 236.5,319.4 C236.7,320.2 236.8,321.1 236.9,322 z" fill="#FF4000"/>
              <path d="M238.2,331.2 C139.8,345.2 40,345.2 -58.4,331.2 C-58.3,330.3 -58.1,329.4 -58,328.6 C40.1,342.6 139.7,342.6 237.9,328.6 C238,329.5 238.1,330.3 238.2,331.2 z" fill="#01A0C6"/>
              <path d="M239.5,340.5 C140.3,354.6 39.5,354.6 -59.7,340.5 C-59.6,339.6 -59.4,338.7 -59.3,337.9 C39.7,352 140.2,352 239.2,337.9 C239.3,338.7 239.4,339.6 239.5,340.5 z" fill="#FF4000"/>
              <path d="M240.9,349.7 C140.8,363.9 39.1,363.9 -61,349.7 C-60.9,348.8 -60.7,347.9 -60.6,347.1 C39.3,361.3 140.7,361.3 240.5,347.1 C240.6,348 240.7,348.8 240.9,349.7 z" fill="#01A0C6"/>
            </g>
          </g>
        </g>
        <g>
          <g>
            <path d="M119.8,1 C118.3,0.7 116.7,0.4 115.4,0.3 C110,-0.1 103.2,1 97.1,3.9 C76.6,13.6 71,22.5 60.8,35.7 C59.6,37.3 58.8,38.4 58.3,39.6 C52.4,45.1 36.2,79 34.4,86.8 C33.2,91.5 26.8,120.8 29.3,139.9 C29.3,141 34.4,108.9 34.4,110 C35,142.2 55.1,164.7 55.2,165.2 C56.4,165.1 67.7,166.7 68.8,162.6 C73.8,156.4 74.8,158.5 69.4,145.4 C70.4,148 70.7,150.4 72.5,153.7 C76.1,142.4 73.6,127.3 72.9,123.9 C72,121 70.8,117.2 70.5,116.2 C69.9,114.4 68.1,112.2 66.3,111.1 C65.6,110.7 65.2,110.2 64.5,109.7 C62.6,108.6 60.5,106.6 58.9,105 C56.3,102.5 55.2,100.4 55.6,96.7 C54.6,103.6 54.6,109.9 56,114.8 C53.9,112.1 53.8,105.7 54.1,101.6 C55.1,90.2 55.7,89.8 56.7,88 C59.1,84.3 60.7,85.2 61.6,79.6 C62.8,81.3 61.9,80.8 61.2,82.7 C61.8,84 60.4,85 61.1,88.7 C61.2,91.2 62.1,89.1 62.4,91.4 C63,85.8 68,75.3 68.4,75.6 C69,73.9 69.5,74.5 69.9,73.4 C68.1,79 67.9,84.1 67.6,89.9 C69.8,85.4 81.9,66.8 80,72.6 C81.5,72.3 85.9,72.3 88.3,71.1 C90.7,70 93.9,71.6 92.4,71.5 C98,73 98.7,69.9 96.9,72.3 C101.1,72.8 102.8,68.9 104.8,66 C105.4,64 107.4,60.8 105.9,63.2 C104.5,65.6 101.8,69.5 102.1,70 C103.1,71 100.7,71.8 100.6,73 C105.5,68.6 105.5,67.4 102.5,73 C102.3,74.2 103.5,74 103.6,74.9 C107.4,70.8 109.6,66.1 109.6,67.4 C112.4,68.2 113.2,60.8 113.7,58 C112.4,68.3 105.9,78.6 104,88.9 C104.4,88.2 107.8,86.2 108.4,85.8 C111.4,83.9 114.9,78.7 116.5,74.7 C121,63.6 123.8,52.7 122.6,41.3 C123.4,41.4 122.6,38.7 123.3,38.8 C123.8,37.6 122.7,38.4 123.2,37.1 C125.6,36.4 125,37.9 126.5,38.9 C129.2,55 125.8,77.1 119.2,89.6 C128,82.7 127.9,72.1 130.1,63.2 C132.1,68.2 128.4,74.6 128.6,78.3 C129.7,79.6 129,80.4 128.6,81.7 C129.1,81.7 131.1,80.6 131.6,80.6 C133.6,78.5 132.4,81.5 134.1,80 C134.3,82.3 136.9,78.3 136.9,81.8 C137.9,82.3 140,81.7 140.3,79.5 C140.4,81.6 142,82.3 143.3,83.3 C144,88.1 144.4,90.5 144.9,92.5 C147.2,94.3 149,95.9 149.7,98 C150.2,99.1 147.2,99.9 148.3,100.4 C147.3,102.9 147.9,100.5 146.3,102.5 C145.2,104.1 146,105 145.4,105.5 C152.1,101.2 157.8,91.9 159.5,81.4 C160.5,89.9 154.8,98 151.2,104.4 C158.7,99.7 156.6,100.5 155.2,107.5 C156.2,107.6 156.9,109.4 156.8,108.4 C156.6,110.7 158.9,107.6 158,110.5 C160.9,107.2 161.1,107.8 160.6,109.7 C172.2,100.3 173.5,96.7 173.9,93.5 C174.7,93.3 175.3,92 171.6,99.4 C170.9,100.7 166.2,105.1 166.3,106.4 C162.9,107.8 165.8,110.6 163.5,113.1 C174.8,109.7 181,105.7 183.5,96.6 C187.9,91 181.3,53.9 179.9,56.3 C180.3,46.2 173.2,31.2 167.3,26.7 C167.3,26.7 159.8,19.8 158.8,19.1 C157.8,18.4 150.9,8.7 149.5,7.9 C148.1,7.1 140.8,3.8 138.5,4.2 C136.2,4.5 134.3,6.9 133.1,7.4 C131.6,5.7 129.3,4.4 124.9,3.1 L119.8,1 z" fill="#D59658"/>
            <path d="M46.1,68.5 C46.5,68.5 46.4,69 46.5,69.3 C44.2,76.7 41,84 40.5,91.9 C40.2,96.7 40,100.3 39.4,105.5 C38.6,111.8 37.5,117.9 37.9,124.3 C32,103.9 39.6,82.7 46.1,68.5 z" fill="#D59658"/>
            <path d="M89.1,71.8 C86.9,75.3 87,78.5 84.2,81.4 C85,83.4 78.9,86.7 76.9,85.8 C76.9,84.7 76.9,83.5 76.9,82.4 C77.5,82.7 77.4,79.2 77.3,80.1 C77.4,77 77.1,77.3 78.4,73.9 C80.4,72.7 86.2,72 89.1,71.8 z" fill="#D59658"/>
            <path d="M99.2,74.9 C99.9,74.8 100,75.3 99.6,75.3 C97.7,78.7 96.4,82.6 92.1,83.6 C94.3,80.6 96.5,77.5 99.2,74.9 z" fill="#D59658"/>
            <path d="M104.9,77.1 C105.6,79.3 103.7,82.2 101.9,83.1 C102.6,80.9 104.2,79.5 104.9,77.1 z" fill="#D59658"/>
            <path d="M134.6,82 C135.9,82.4 137.4,82.5 138.7,82.8 C137.9,88.9 138.1,88.3 139.8,83.6 C140.7,84.7 142,85.4 142.1,87.4 C138.4,91.4 135.9,99.3 128.5,97.2 C128.6,96.1 131.1,97.5 131.1,96.4 C130.4,95.9 127.6,95.7 127.3,96 C125.6,94.2 130.5,92.1 128.8,91.5 C131.4,90.1 133.3,85.7 134.6,82 z" fill="#D59658"/>
            <path d="M58.9,86.2 C59.8,90.1 60.1,94.6 61.9,97.5 C60,96.5 59.3,94.3 57.8,93 C58.8,91.6 57.7,88.2 58.9,86.2 z" fill="#D59658"/>
            <path d="M144.8,86.9 C146.3,87.1 145.8,88.2 145.2,88.8 C144,88.6 144.7,87.8 144.8,86.9 z" fill="#D59658"/>
            <path d="M143.7,89.2 C144.7,92.5 140.7,99.1 136.9,99 C139.3,95.9 142.4,93.4 143.7,89.2 z" fill="#D59658"/>
            <path d="M147.8,96 C148.1,96.2 148.4,96.4 148.9,96.4 C148.2,99.1 147.2,101.5 145.1,102.8 C145.9,100.3 147.5,98.8 147.8,96 z" fill="#D59658"/>
            <path d="M156.6,113 C157.3,111.2 164.1,111 160.9,118.7 C153.9,135.9 154.5,155.3 154.7,169.8 C153.8,167.6 153.7,167.9 152.9,166.1 C152.5,165.2 151.2,160.8 151.3,158.8 C148.7,151 148.4,120.1 156.6,113 z" fill="#D59658"/>
            <path d="M83.8,60.2 C81.7,64.1 80.7,72.5 75.9,74.9 C77,70.1 81.2,64.9 83.8,60.2 z" fill="#D59658"/>
            <path d="M90.2,72.6 C91.8,72.6 93.6,72.5 94.7,73 C91.6,77 92.2,80.3 87.5,82.8 C87.5,83.3 83.3,84.2 83.8,84.3 C83.2,85.3 82.3,84.5 81.2,85.4 C84.7,81.7 87.7,77.4 90.2,72.6 z" fill="#D59658"/>
            <path d="M90.5,80.2 C89.7,79.2 94,74.4 97.3,73.8 C95.1,79.7 90.1,82.7 84.9,85.5 C85.2,84.2 86.4,83.7 87.5,83.2 C87.1,82 86.5,82.4 87.5,81.3 C88.1,81.5 87.4,81.8 87.5,82.4 C89.2,82.6 88.7,80.8 89,80.5 C89.2,80.1 89.4,81.5 90.5,80.2 z" fill="#D59658"/>
            <path d="M127.7,76.8 C129.1,81.6 126.8,85.5 124.4,89.2 C123.4,85.3 126.6,80.1 127.7,76.8 z" fill="#D59658"/>
            <path d="M148.2,123.1 C147.7,126.8 144.3,129.5 144.4,132.5 C147.6,130.7 147.2,125.2 149.7,122.7 C151.2,125.9 149.8,127.7 148.7,130.6 C143.8,143.4 139.9,161.3 143.7,175.8 C134.1,176.5 135.9,164.3 133.9,158.5 C132.4,162.5 136.1,174.4 136.9,176.6 C135.5,177.4 135.5,177.2 133.5,177.4 C126.5,173.1 122.4,163.8 123.3,155.5 C122,159.8 120.9,168.9 122.2,173.6 C119.3,172.1 120,166.7 118.8,164.6 C118.1,167.6 119.3,172.8 122.2,174.4 C114.7,172.5 111.8,148 121.4,143.9 C119.7,147.5 118.8,153.4 119.1,157.8 C119.9,147.8 123.7,140.8 130.8,137.1 C130.9,137.4 131.6,138.4 131.6,138.4 C132.3,134.9 132.6,139 132.7,136 C136.9,132.3 142,129.5 144.4,123.9 C146.3,124.2 146.4,122.8 148.2,123.1 z M141.4,143.9 C138.3,151 137.2,158.8 138,166.9 C138.5,157.7 141.4,145.7 143.7,137.1 C141.9,138.9 141.9,140.5 141.4,143.9 z" fill="#D59658"/>
            <path d="M67.2,76 C67.6,76 68,76 68.3,76 C65.4,81.7 66.6,91 65.7,97.9 C62.1,91.6 64.3,81.9 67.2,76 z" fill="#D59658"/>
          </g>
          <path d="M156.1,127.7 C158.4,124.5 159.3,119.9 160.6,115.6 C158.9,116.7 158.2,115.5 158,114.1 C156.9,118.3 156.4,123.8 156.1,127.7 z" fill="#D59658"/>
          <path d="M158.5,179.8 C158.5,179.8 164.6,198.2 167.4,202.2 C170.2,206.2 174.8,212.1 177.1,214.3 C179.4,216.6 183.2,221.7 183.5,230 C184,241.6 179.1,255.2 177.2,257.3 C175.3,259.4 171.7,262.2 171.7,262.2 L171.5,265.4 C171.5,265.4 175.3,263.1 177.6,259.3 C179.9,255.5 186.3,247 186.5,244.1 C186.7,241.3 186.7,230.1 184.8,226.1 C182.9,222.1 182.5,220.6 181.4,218 C180.3,215.3 178,212.7 175.9,209.7 C173.8,206.7 167.2,195.1 165.7,191.1 C164.2,187.1 160.8,179.5 160.8,179.5 L158.5,179.8 z" fill="#D59658"/>
        </g>
        <path d="M63.2,156.9 C57.7,151.1 46.1,131.2 46.7,98.9 C47.4,66.6 70.8,40.5 77,36.2 C83.3,31.9 78,43.1 77,51 C76,58.9 84.9,48.7 89.5,45.1 C94.1,41.5 84.9,50 90.8,51.7 C96.7,53.3 102.7,36.5 102.7,36.5 C102.7,36.5 100.1,39.8 96.1,45.1 C92.1,50.4 94.1,41.8 94.8,38.5 C95.5,35.2 91.5,39.8 86.2,42.8 C80.9,45.8 84.6,36.9 86.2,31.6 C87.8,26.3 75.6,35.9 85.2,20.7 C91.4,10.9 102.2,4.1 109,0.5 C105.1,1 100.9,2.1 97,3.9 C76.5,13.6 70.9,22.5 60.7,35.7 C59.5,37.3 58.7,38.4 58.2,39.6 C52.3,45.1 36.1,79 34.3,86.8 C33.1,91.5 26.7,120.8 29.2,139.9 C29.2,141 34.3,108.9 34.3,110 C34.9,142.2 55,164.7 55.1,165.2 C56.3,165.1 67.6,166.7 68.7,162.6 C68.7,162.5 68.8,162.5 68.8,162.4 C66.8,160.5 64.8,158.6 63.2,156.9 z M40.4,91.8 C40.1,96.6 39.9,100.2 39.3,105.4 C38.5,111.7 37.4,117.8 37.8,124.2 C32.1,103.8 39.6,82.6 46.1,68.4 C46.5,68.4 46.4,68.9 46.5,69.2 C44.1,76.6 40.9,83.9 40.4,91.8 z" fill="#FFFFFF"/>
        <g>
          <path d="M31.4,95.6 C28.2,109.3 28.6,117.8 27.9,135 C25.3,122.1 26.8,108.2 31.4,95.6 z" fill="#5A3D1B"/>
          <path d="M110.1,106.5 C110.4,108.3 108.1,107.5 108.6,109.5 C109.3,109.9 111,108.2 111.6,107.2 C112.2,108.9 110.2,111.3 107.5,111 C106.6,109 108.2,107 110.1,106.5 z" fill="#5A3D1B"/>
          <path d="M100.5,120.4 C102.1,120.4 103.4,120 105.2,120.4 C106.8,120.7 108.4,121.3 110,121.9 C113.2,123.1 116.2,124 119.6,123.5 C118.7,122 116.9,121.4 115.5,120.5 C117.7,119.4 120,121.5 121.2,122.8 C119.2,128.8 116.1,133.5 109.9,135.2 C113.9,132.5 117.6,129.6 119.7,125 C115.5,125.5 110.7,122.4 106.9,121.2 C104.7,120.6 102.6,120.5 100.5,120.4 z" fill="#5A3D1B"/>
          <path d="M29.1,186.5 C31.3,186.8 30.9,188.1 31.6,189.8 C34.6,211.9 24.4,222.4 23.4,238.1 C20.8,231.1 26.6,225 26.5,220 C26.4,217.1 24,215.7 23.5,212.1 C21.6,212.6 24,216.3 22.4,216.2 C22.6,214.4 22,211.8 22.8,210.5 C25.3,212.1 26.1,215.5 26.6,219.2 C30,214.9 31.4,206.5 31.5,199.6 C31.5,194.7 30.9,189.8 29.1,186.5 z" fill="#5A3D1B"/>
          <path d="M138.4,219.3 C139.9,221.9 139.1,226.3 139.5,229.1 C137.8,226.6 139.1,223 138.4,219.3 z" fill="#5A3D1B"/>
          <path d="M141.3,255.8 C141.6,259.7 138.7,268.6 138.8,272.4 C136.5,267.7 140.3,259.6 141.3,255.8 z" fill="#5A3D1B"/>
          <path d="M138.8,272.4 C140.6,277.2 140.3,284.1 139.9,288.6 C139.3,283.4 139,278 138.8,272.4 z" fill="#5A3D1B"/>
          <path d="M128.3,3.8 C125.2,2.5 121.6,1.8 118.5,0.8 C111.5,1.3 107.4,0.8 101.1,4.3 C105.4,1.4 92.4,4.4 81.9,12.7 C68.8,23.1 58.9,37.1 51.4,51.9 C46.9,60.7 41.9,71.2 39.8,80.8 C43.5,73.8 45.3,66 48.9,59 C51.1,54.8 54.3,47.8 59,46 C53.6,54.7 48.6,63.9 45.2,73.7 C43.6,78.4 42.3,83.1 41.6,88 C41.1,91.4 42.4,95.8 41.9,98.9 C42.2,97.1 41.6,94.5 43.4,93.4 C42.2,101.7 42.4,109.8 42.9,114.6 C44.4,128.1 47.7,136.6 53.9,148.9 C55.5,152.1 57.3,155.3 59.6,158 C60.6,159.2 61.6,160.5 62.6,161.7 C62.9,162.1 63.7,163.9 64.1,164 C64.3,164.1 66.7,163.9 66.3,163.3 C62.9,157.5 58,152.7 57.8,145.5 C59.1,149 64,164.9 69.9,160.8 C74.6,157.5 70.6,148.9 68,142.8 C71.3,146.4 71.3,149.9 72.4,153.5 C75.6,143.7 73.9,132.7 71.7,122.9 C71.9,123.1 72.5,123.6 72.6,123.8 C71.2,122.1 70.5,119.9 69.8,117.8 C69.5,116.7 69.2,115.7 68.8,114.6 C68.3,113.1 67.5,112.8 66.3,112 C65.7,111.5 65,111.1 64.4,110.7 C63.2,109.9 62.4,108.7 61.3,107.8 C60.2,106.9 59.1,106 58.1,104.9 C56,102.7 54.9,100 55.3,96.9 C54.6,102.8 54.1,107.4 55.7,114.7 C52,109.4 53.7,97.9 53.7,91.7 C53.8,83.2 54.5,74.8 57.6,66 C56.8,73.6 52.9,81 56.5,87.9 C59.2,84.6 60.6,80.4 61.4,76.2 C62.6,78.4 61.2,83.9 61.2,84.7 C61.1,86.9 61.6,89 62.1,91.2 C62.5,88.4 63.6,73.6 68.1,75.5 C68.4,73.7 68.6,71.4 70.6,71.2 C69.2,77.3 67.5,83.4 67.4,89.8 C70.9,83 73.4,75.8 76.8,69.1 C79.3,64.2 83.2,60.1 86.4,55.7 C88.3,53.1 90,52.5 93.1,48.3 C89.5,56.8 82.3,63.5 79.7,72.6 C79.7,72.6 86.9,71.6 87.7,71 C90.1,69.6 91.5,67.5 93.1,65.3 C93.9,64.2 94.7,62.7 95,61.3 C94.8,65.9 90.8,68 90.6,71.1 C91.7,70.8 93.4,71.3 94.9,70.5 C93.9,71.1 93.7,71.7 92.2,71.6 C97.2,73 99.9,68.3 101.7,64.5 C101.1,69.3 98.4,69.8 96.6,72.2 C102.6,73.1 106.1,59.9 108.1,56.3 C106.1,61.2 106.5,61.2 105.8,63 C104.8,65.4 102.3,71.3 100.3,72.9 C105.5,68.5 108,62.1 111,56.2 C109.2,63.1 100.4,73 103.2,74.7 C107.4,70.4 108.6,64.2 111.6,59.2 C110.6,60.9 109.4,65.2 109.3,67.1 C109.6,67.1 110.2,67.1 110.5,66.9 C111.7,63.9 112.2,61 113.2,58.2 C112.7,63 111,67.6 109.4,72.1 C109,73.3 105,86.3 105.1,86.3 C112.3,86.2 115.8,72.9 117.6,67.6 C120.9,57.8 122,37.4 122.3,37.7 C122.1,37.5 121.9,37 121.5,36.7 C131.3,34 127.6,56 126.9,61.3 C125.7,70.9 123.4,80.6 119.1,89.3 C125.8,82.6 127.3,71.9 130,63.2 C132.6,69.2 126.7,74.9 130.1,80.3 C133.7,80.8 134.2,71.6 136,69.2 C136,71.6 134.2,76.8 135.3,78.8 C136.2,80.4 139,80.9 140.2,79.4 C140.5,81 141.7,82.3 143.2,82.9 C146.7,78.9 147.7,73.4 149.2,68.2 C148.7,73.8 145.7,78.7 144.5,84.1 C145.7,83.7 146.4,82.6 146.7,81.3 C146.9,82.7 146,84 146,85.6 C150.3,80.2 151.1,67.5 151.3,67.6 C151.8,66.2 151.4,61.5 151.4,60 C152.8,65.4 150.8,76.7 150.4,82.1 C152.4,79.3 153,73.2 153.9,70.1 C153.3,79.7 152,88.8 150,98.1 C150.4,97.8 151.1,97.4 151.5,97 C151.4,99.1 148.8,101.2 147.4,103 C147.7,103.1 146.1,104.4 146.4,104.5 C145.8,105.1 147.1,104.4 146.2,104.9 C154.1,99.8 158,90.3 159.7,81.4 C160.8,89.8 155.1,97 151.5,104 C159.4,99.5 160,88 161.9,80.2 C163.2,87.4 159.8,94.4 159,101.4 C158.7,104.2 158.9,107 158.3,109.8 C160.3,107.8 161.5,104.7 162.4,102.1 C162.8,100.8 165.4,94.1 164.5,93 C168.3,97.7 162.2,105 160.8,109.3 C173,97 173.9,77.3 168.3,61.6 C171.1,62.3 171.3,63.3 172.3,65.7 C173.8,72 173.1,79.3 173,82.3 C172.9,87 172.1,91.6 170.9,96.1 C175.9,90.3 175.6,82.3 178,75.4 C179,77.9 177.8,80.7 178,83.3 C179.5,81.9 178.6,80.6 179.6,78.2 C178.6,83 177.9,87.8 175.7,92.2 C174.3,94.9 172.3,100 168.6,104.1 C166.8,107.7 167.6,108.9 165.6,111.6 C173.3,108 177.9,98.2 179.7,90.4 C178.2,92.5 176.8,94.6 175.4,96.8 C180.9,88.1 183.9,75.5 180.9,65.5 C179.9,67.3 180.2,70 178.4,71.3 C179.6,64.8 180.6,57.8 177.7,51.6 C182.4,47.6 168.7,26.5 164.6,23.8 C170.9,27.8 174.8,34.8 177.6,41.4 C180.5,47.9 183,58.4 183.2,65.6 C183,64.9 182.6,64.2 182.5,63.3 C182.1,65.3 182.7,67.7 183.2,69.5 C183.2,69 183.3,68.4 183.3,67.8 C184.5,72.5 185.3,77.4 185.9,82.2 C186.2,85 186.5,88 186.4,90.8 C186.2,96.6 183,105.2 178.2,108.7 C177.5,109.2 174.5,109.8 174.2,110.2 C177.8,103.5 183.6,99 182.9,88 C178.3,94.4 179.1,104.4 173.1,109.9 C170.3,112.4 164.8,113.1 162.5,115.9 C160.9,118 158.3,125.9 157.9,128.5 C157.4,131.8 157,135 156.4,138.4 C156,140.5 153.6,180.5 160.2,178.9 C161.5,178.6 163.5,179.2 165.5,180.7 C177.1,183.7 178,193.6 175.3,207.5 C175.6,195.4 173.4,183.5 162.1,180.7 C163.1,185.3 166.4,191.2 167.4,195.4 C163.4,192 163.3,184.6 160.2,180.3 C159.9,180.4 159.8,180.7 159.4,180.7 C160.6,190.5 166.3,200.9 172.6,207.8 C173.9,206.2 168.9,199 168.8,196.5 C171.8,199.7 173.1,206.4 176.3,210.4 C175.1,211.2 174.6,208.1 173.3,207.8 C174.3,210.8 177.4,215 180.1,217.6 C180,215.8 178.6,215.3 177.8,214.2 C180.2,215 182.6,219.2 183.1,223.2 C190.1,232.1 188,251.1 180.5,257.9 C181.9,253.5 184.3,250.1 185.4,245.5 C182,253.2 177.6,259.8 172.2,265.5 C171.7,266 172.3,269.6 172.4,270.4 C172.5,272.2 172.6,274 172.7,275.8 C172.8,278.4 174.3,283.2 172.7,285.3 C170.2,283.6 170.5,279.5 170.8,276.9 C171.1,273.3 171.4,269.9 171.2,266.3 C171.1,265.5 170.2,266.8 169.3,266.3 C169.5,265.3 170.9,265.7 171.2,264.8 C171.5,247.5 173.5,230.1 173.8,215.4 C173.5,214.1 174,213.2 173.4,213.1 C166,203.9 161.1,192.2 157.2,179.6 C153.6,178.9 149.5,178.7 145.9,178.1 C145.3,178.3 144.8,178 144,177.7 C141.8,178.7 138.6,177.7 136.8,178.5 C135.4,179.1 134.7,180.5 133.6,181.4 C128.3,185.5 123.3,189.6 118.2,194 C108.3,202.6 96.8,212.2 82.9,212.4 C77,212.5 68.1,211.1 63.3,207.5 C55.2,201.5 46.8,178.8 55,167.2 C46.3,168.9 35.3,168.2 28,174 C24.7,176.6 24.1,180.5 21.7,183.8 C23.4,178.6 24.6,173.2 30,170.8 C37.1,167.7 45.4,168 52.8,164.9 C53,163.4 49.8,159.4 49.1,158.1 C46.9,154.1 44.7,150 42.5,146 C40.4,142.1 38.9,138.5 37.8,134.1 C35.9,126.9 32.5,118.7 34,111.2 C31.6,120.8 31.1,130.8 31.4,140.7 C31.6,145.6 31.7,150.6 33.2,155.3 C34.5,159.3 38.6,163.9 37,169.4 C36.4,164.3 32.6,158.6 31.1,153.9 C28.9,147.1 28.7,139.1 29.1,132 C29.8,116.7 34.7,102.2 37.1,87.2 C36.7,88.3 35.9,89.2 35.3,90.3 C35.6,85.7 38.1,81.6 38.9,77.1 C35,81.8 33.2,88.2 31.7,94 C36.8,75.5 46.3,55.8 57.2,40.1 C68.1,24.4 84.1,7 102.9,1.3 C112.9,-1.7 121.7,1 130.8,5.2 C130.1,4.6 129.2,4.2 128.3,3.8 z M124.1,41.7 C125.2,41.2 126.7,41 126.7,39.4 C125.2,39.5 123.9,39.9 124.1,41.7 z M127.1,43.2 C125.2,43.2 125.2,43.6 123.7,43.2 C123.1,47.8 122.3,51.9 121.5,57.9 C120.8,67.1 117.8,74.1 114,81.5 C112.1,85.2 110,89.1 106.7,91.9 C105.2,93.1 98.4,94.8 101.1,90.9 C101,93 102.9,93 103.6,91.2 C101.8,91.1 100.3,88 101,85.8 C100.5,87.3 95,87.3 94.5,86.6 C97.7,86.3 99.9,84.5 101.5,81.7 C102.2,80.4 104.9,74.8 101.8,75.1 C99.8,75.3 98.6,78.7 98,80.1 C96.9,82.5 95.3,84.9 92.5,85.4 C89.8,85.8 88.1,84.2 86.1,86.8 C88.5,85.6 92.1,86.9 94.3,87.9 C95.5,88.5 96.7,89.1 97.7,90.1 C97.9,90.4 100,93.9 99.4,94 C98.2,94.1 97.3,93.7 96.1,93.7 C93,88.9 82.7,88.9 78.8,92.9 C78,93.1 75.7,93.8 75,92.9 C75.3,92.2 77.1,93 77.3,92.1 C76.2,91.4 75.1,90.7 75,89.1 C75.4,89.2 75.9,89.8 76.1,89.1 C74.7,83.8 76.1,79.3 77.6,75.2 C75.4,76.1 71.8,85.5 70.8,89.1 C70.4,90.8 68.9,91.9 69.3,93.6 C69.7,95.1 69.3,100.5 71.7,103.7 C68.5,100.5 67.1,99.8 67,95.5 C66,101.1 69.8,102 71.9,104.5 C70.8,105.3 69.8,103.6 68.1,103.7 C67.6,107.1 69.9,110.9 68.9,112.4 C70,112.4 70.5,113.1 70.8,113.9 C73.5,121.3 75.5,129.8 81.3,135.8 C84.4,139.1 95.6,151.8 101,150.8 C108.5,149.4 126.2,139.3 131.5,135.7 C135.9,132.7 139.1,127.9 142.4,124 C142.8,123.6 143.1,122.8 143.5,121.7 C145.9,114.4 151,109.8 154.8,104 C152.3,105 151.5,107.8 148.4,108.1 C148.9,106.8 149.1,105.3 149.9,104.3 C147.5,104.7 148.2,105.5 145.4,105.6 C144.5,104.7 144.2,106.4 144.2,104.7 C143.3,104.7 142.4,104.7 141.6,104.7 C141.8,106.6 143.5,106.8 145.7,108.2 C143,108.4 143,107.2 141.6,107.3 C140.5,107.5 140.6,109 139,108.8 C137,105.4 135.8,98.9 130,101.6 C129.7,100.4 131,100.8 131.1,100.1 C128.5,97.5 124,102.5 122.8,99 C123.3,98 124.3,97.5 125.1,96.7 C124.4,96.5 123.5,97.9 123.6,96.3 C124.1,95.6 125.6,95.7 126.2,95.2 C127.5,93.4 131.7,86.9 131.2,82.2 C131.1,81.5 130.3,81.4 129.3,81.6 C129.1,81.6 128.3,84.5 128.1,84.7 C126.9,86.9 125.6,89.1 124.1,91.1 C123.4,92.1 122.6,93 121.7,93.9 C121.5,94.1 119.4,95.5 119.4,95.5 C119.4,95.1 120.8,93.8 120.7,93.5 C121.4,92.8 122.2,89.5 122.3,87 C121.3,89.7 115.6,92.9 112.2,94 C119.3,87.6 120.3,81.9 123.3,74.9 C124.5,72.1 124.7,67.5 125.3,64.5 C125.7,62.3 126,60.1 126.1,57.9 C126.7,53.3 126.8,48.3 127.1,43.2 z M75.8,74.9 C80.7,72.5 81.6,64.1 83.7,60.2 C81.2,64.9 77,70.1 75.8,74.9 z M37.8,124.3 C37.4,117.9 38.5,111.7 39.3,105.5 C39.9,100.3 40.1,96.7 40.4,91.9 C40.9,84 44.1,76.7 46.4,69.3 C46.3,69 46.4,68.6 46,68.5 C39.6,82.7 32,103.9 37.8,124.3 z M81.1,85.4 C82.4,84.4 84.4,83.9 85.9,82.9 C90.3,80 91.6,76.9 94.7,72.9 C93.6,72.4 91.8,72.5 90.2,72.5 C87.7,77.4 84.7,81.7 81.1,85.4 z M79.6,74.5 C78.6,75.2 77.7,78.5 77.8,79.6 C77.8,80.9 75.8,86.5 78.4,85.9 C81.2,85.4 83.2,82.4 84.5,80.1 C84.9,79.4 87.1,73 87.5,72.9 C84.5,73.1 81.5,73.3 79.6,74.5 z M89.9,81.2 C89.8,81.2 89.8,81.3 89.7,81.3 C88.7,82 88.8,82 88,82.6 C87.3,83.2 85.6,84.3 85.1,85 C86.7,82.8 89.9,82.3 92,80.7 C94.4,78.9 96.2,76.5 97.3,73.7 C96.9,74.6 94.3,76.4 93.4,77.5 C92.3,79.1 91.4,80 89.9,81.2 z M92.1,83.6 C96.4,82.6 97.8,78.7 99.6,75.3 C100,75.3 99.9,74.8 99.2,74.9 C96.5,77.5 94.3,80.6 92.1,83.6 z M65.7,97.9 C66.7,91 65.4,81.8 68.3,76 C67.9,76 67.5,76 67.2,76 C64.3,81.9 62.1,91.6 65.7,97.9 z M101.9,83.2 C103.8,82.3 105.6,79.4 104.9,77.2 C104.2,79.5 102.6,80.9 101.9,83.2 z M124.2,88.5 C126.1,86.7 128.1,78.7 127.1,79 C127.1,80.2 124.6,87.2 124.2,88.5 z M101.9,89.6 C102.3,88.9 102.6,89.6 103.8,88.1 C103.4,85.1 106.1,83.1 105.3,80.9 C104.6,83.9 100.9,87.5 101.9,89.6 z M130.6,90.9 C129.6,92.7 128.6,94.4 127.4,96 C127.7,95.6 130.5,95.9 131.2,96.4 C131.1,97.5 128.6,96.1 128.6,97.2 C135.9,99.3 138.5,91.4 142.2,87.4 C142.1,85.5 140.9,84.7 139.9,83.6 C140.1,83.8 138.8,86.5 138.6,86.9 C138.2,87.9 137.7,88.9 137.1,89.9 C136.4,91.2 135.6,92.4 134.5,93.4 C134,93.9 133.4,94.2 132.9,94.6 C132.7,94.7 131.6,95.3 131.6,95.3 C134.6,92.2 137.9,89 138.8,82.9 C137.4,82.7 135.9,82.5 134.7,82.1 C133.5,84.9 132.2,88 130.6,90.9 z M147.8,87.3 C149.2,87.3 148.6,85.3 149.3,84.7 C148.2,84.9 148.4,86.5 147.8,87.3 z M57.7,93 C59.3,94.3 60,96.5 61.8,97.5 C60,94.5 59.7,90.1 58.8,86.2 C57.7,88.2 58.8,91.6 57.7,93 z M145.2,88.8 C145.8,88.2 146.3,87.1 144.8,86.9 C144.7,87.8 144,88.6 145.2,88.8 z M136.9,99 C140.7,99.1 144.7,92.5 143.7,89.2 C142.4,93.4 139.3,95.9 136.9,99 z M150.5,92.6 C150.9,92 152.5,89.4 150.9,89.2 C150.9,90.2 149.3,91.6 150.5,92.6 z M57,97.5 C55.6,104.5 62.9,107.9 66.8,109.6 C67.7,103.2 58.8,106.5 59.3,100.6 C59.7,99.4 61.1,99.4 61.2,98 C59.3,96.8 58.1,94.8 56.7,93.1 C56.7,94 56.7,94.9 56.7,95.7 C58.9,95.5 57.9,98.5 59,99.5 C57.7,99.3 58.4,97.4 57,97.5 z M139.9,100.9 C140.2,102.1 140.8,103 141.4,103.9 C142.3,103.7 144.1,104.4 144.4,103.5 C144.1,101.6 148.5,96.5 146.7,94.1 C144.8,97.3 143.5,100.2 139.9,100.9 z M145.2,102.8 C147.3,101.5 148.3,99.1 149,96.4 C148.5,96.4 148.2,96.2 147.9,96 C147.5,98.8 145.9,100.3 145.2,102.8 z M60,102 C61,104.2 64.8,103.7 66.4,105.4 C66.5,103.9 66.4,102.6 66,101.6 C64.8,101.9 64.6,101.2 63.7,101.2 C63.8,97.2 59.9,99.2 60,102 z M30.6,128 C31.8,118.1 32.8,109.5 35.1,100.9 C31.9,107.5 30.3,120.1 30.6,128 z M157.6,105.4 C158,104.7 159.5,103.3 158.4,102.4 C158.8,103.8 156.8,104.8 157.6,105.4 z M43.4,143.2 C44.6,147 45.8,150.6 48.1,154.1 C49.3,156 55.1,167 57.7,162.1 C59.2,159.3 54.9,155 53.4,153 C50.8,149.6 48.8,146.3 47.6,142.1 C44.6,131.1 40.4,119.6 40.1,106.3 C40.4,105.5 39.7,103.9 39.7,105.5 C39.6,111.9 38.8,118.3 38.9,124.7 C39,130.9 41.2,135.8 42.9,141.7 C43.1,142.1 43.2,142.7 43.4,143.2 z M147.8,121.2 C150.6,119.2 153.9,115.8 153.8,112.2 C152.9,116 148.7,118.6 147.8,121.2 z M147.5,119 C149.4,117.7 150.9,116.1 151.6,113.7 C149.1,114.3 148.1,116.5 147.5,119 z M150,147.4 C149.8,148.3 151.6,164.3 153.2,163.7 C154.8,163.1 151.9,146.4 152,145.1 C152.1,142.6 151.9,140.1 152.2,137.6 C152.5,134.6 153,131.6 153.5,128.6 C153.7,127.7 156.3,117.4 155.4,117.1 C155.1,118.1 154.3,117.9 153.3,121.9 C152.6,124.6 151.6,128.7 151.3,131.5 C151.1,134.2 150.4,136.8 150.1,139.5 C149.9,141.7 150.3,143.9 150.2,146 C150.1,146.5 150.1,146.9 150,147.4 z M144.4,123.9 C142.1,129.5 136.9,132.3 132.7,136 C132.6,139 130.4,141.6 129.7,145 C128.1,153 131,163.8 133.1,170.6 C127.4,162.5 130.7,140.5 130.8,138.9 C130.6,138.7 130.9,137.3 130.8,137 C123.7,140.8 119.9,147.7 119.1,157.7 C118.7,153.3 119.6,147.3 121.4,143.8 C111.8,147.9 114.6,172.4 122.2,174.3 C119.3,172.7 118.1,167.5 118.8,164.5 C120,166.7 119.3,172 122.2,173.5 C120.9,168.8 122.2,166.2 121.7,160.1 C122,159.4 122.1,155.9 123.3,155.4 C122.4,163.6 126.5,172.9 133.5,177.3 C135.5,177.1 135.5,177.3 136.9,176.5 C136.1,174.3 134.4,173 133.5,170.8 C134.8,167 132.4,162.4 133.9,158.4 C135.9,164.2 134.1,176.4 143.7,175.7 C138.4,176.1 145.3,136 147.1,131.2 C148.2,128.2 151.2,125.7 149.7,122.5 C147.2,125 147.6,130.5 144.4,132.3 C144.3,129.3 147.7,126.6 148.2,122.9 C146.4,122.8 146.3,124.2 144.4,123.9 z M144.8,175.9 C146.4,176.2 151.3,176.9 151.2,177.4 C152.8,177.5 155.6,178.6 156.9,177.8 C148.4,165.4 147.3,142.3 151.6,126.5 C148.8,129.4 138.2,162.6 144.8,175.9 z M75.1,148 C74.5,153.3 73.1,158.5 70.8,163.3 C69.9,165.3 63,176.3 60.8,172.1 C61.1,171.9 61.5,171.7 61.8,171.6 C62,171.5 64.4,168.3 64.8,167.7 C64.4,167.4 63.1,166.4 62.6,166.9 C61,167.5 57.5,167.5 55.1,168.8 C49.1,185.8 57.2,206.3 72.4,210.3 C80.8,212.5 90,211.3 97.8,207.8 C105.9,204.2 112,197.4 118.9,192 C120.6,190.7 133.3,182.4 131.9,179.7 C115.3,180.1 110.8,164.7 114.2,147.7 C110.5,149.7 106.6,151.8 102.4,152.2 C92,153.2 80.8,137.1 75,130.3 C74.3,136.1 75.6,141.8 75,147.6 C75.1,147.7 75.1,147.8 75.1,148 z M130.1,177 C127.4,174.2 125,169.1 122.9,166.8 C123.4,169.9 123.3,178.1 130.1,177 z M172.7,260.3 C175,259.3 177.5,255.3 179.1,252.4 C181.9,243.2 186.9,221 175.7,215.1 C175.2,229.8 172.8,244.6 172.7,260.3 z M184,231.7 C183.8,230.2 184.4,226 183.6,226.4 C183.8,227.9 183.2,232.1 184,231.7 z M172.7,263.4 C175.8,261.5 177.9,257.4 180.2,254 C184.4,247.7 187.8,239.4 185.1,231 C185,245.7 179.8,255.4 172.7,263.4 z" fill="#5A3D1B"/>
          <path d="M140.3,10 C139.9,7.8 143.1,7.7 144.1,8.1 C143.5,5.8 139.6,6.9 136.9,6.6 C135,6.6 135,9.2 133.1,8.1 C134.5,2 140.4,2.5 145,4.5 C151.1,7.1 154.2,11.1 158.3,16 C159.9,17.9 161,19.1 163.2,21.5 C159.5,20 158.6,18.5 156.9,16.6 C148.6,7.4 140.3,10.3 140.3,10 z M136.2,5.9 C141.6,4.2 145,8.7 149.4,7.8 C146.8,5 139.8,3.3 136.2,5.9 z" fill="#5A3D1B"/>
          <path d="M92.1,120.1 C92.3,124.9 95.3,127 96.6,130.7 C92.7,126.9 89.5,119.9 91.7,114.1 C95.8,114.6 98.3,114.3 102.3,115.2 C100.4,116.6 95.5,114.9 92.9,116.3 C92.1,116.7 92.1,117.7 92.1,118.9 C94.4,119.8 96,119.5 98.8,119.7 C99.2,119.7 100.2,120 100.8,120.1 C99.7,119.9 98.1,120.2 96.9,120.2 C95.3,120.1 93.7,120 92.1,120.1 z" fill="#5A3D1B"/>
          <path d="M143.7,137.1 C141.4,145.7 138.5,157.7 138,166.9 C137.2,158.8 138.3,151 141.4,143.9 C141.9,140.5 141.9,138.9 143.7,137.1 z" fill="#5A3D1B"/>
          <path d="M21.9,185.3 C21.9,184.4 22.4,184.7 22.3,185.3 C19.6,192.4 21.2,201.3 20,208.7 C19.8,210.2 18.9,211.5 18.7,213.1 C18.1,216.9 20,220.7 19.7,224.6 C19.1,232.1 17.9,239.9 17.8,246.8 C17.6,259.8 16.9,271.8 16.3,283.4 C15.2,269.6 16.4,255.8 16.3,241.9 C16.3,236.9 17.5,231.9 18.2,227 C18.5,224.5 18.8,222 18.6,219.5 C18.4,216.8 17.2,215.2 18.1,212.6 C19,209.6 19.4,206.6 19.5,203.4 C19.6,200.3 19.4,197.2 19.7,194.1 C19.8,192.6 20,191.1 20.4,189.6 C20.7,188.6 22,186.7 22,185.8 C21.9,185.6 21.9,185.5 21.9,185.3 z" fill="#5A3D1B"/>
          <path d="M139.5,234.7 C140.6,240.1 142,249.8 141,256.6 C139.9,249.1 138.9,243.2 139.5,234.7 z" fill="#5A3D1B"/>
          <path d="M159.2,240.4 C157,240.8 156,242.3 155.1,243.8 C154.7,242 157,239.7 160,240 C159.8,242.9 148.7,262.4 142.7,266.8 C144.9,264.7 159.5,244.1 159.2,240.4 z" fill="#5A3D1B"/>
          <path d="M150.8,264.5 C151.2,265.3 145.2,272.6 144.8,274 C144.1,272.8 150.3,265.6 150.8,264.5 z" fill="#5A3D1B"/>
          <path d="M23.2,239.6 C23.3,238.1 23.4,238 24.1,240.7 C25.1,243.9 26.6,249.1 26.9,250.1 C28.6,255.4 30.7,260.2 31.6,265.7 C32.2,269.3 31.6,273 32.7,276.5 C32.2,274.9 31.1,273.5 30.9,271.8 C30.7,270 30.6,268.2 30.3,266.4 C29.3,259.6 25.9,253.8 24.8,247.2 C24.8,246.3 23.7,244.3 23.2,239.6 z" fill="#5A3D1B"/>
        </g>
        <g>
          <path d="M46.1,68.5 C39.6,82.7 32.1,103.9 37.8,124.3 C37.4,117.9 38.5,111.7 39.3,105.5 C39.9,100.3 40.1,96.7 40.4,91.9 C40.9,84 44.1,76.7 46.4,69.3 C46.4,68.9 46.4,68.5 46.1,68.5 z" fill="#D59658"/>
          <path d="M84.3,81.4 C87.1,78.5 87,75.3 89.2,71.8 C86.2,72 80.5,72.7 78.6,73.9 C77.2,77.3 77.5,77 77.5,80.1 C77.6,79.2 77.7,82.7 77.1,82.4 C77.1,83.5 77.1,84.7 77.1,85.8 C78.2,86.3 80.3,85.6 82,84.5 C82.8,83.6 83.6,82.6 84.4,81.7 C84.3,81.6 84.3,81.5 84.3,81.4 z" fill="#D59658"/>
          <path d="M92.1,83.6 C96.4,82.6 97.8,78.7 99.6,75.3 C100,75.3 99.9,74.8 99.2,74.9 C96.5,77.5 94.3,80.6 92.1,83.6 z" fill="#D59658"/>
          <path d="M104.9,77.1 C104.2,79.4 102.6,80.9 101.9,83.1 C103.7,82.3 105.6,79.3 104.9,77.1 z" fill="#D59658"/>
          <path d="M128.6,97.1 C135.9,99.2 138.5,91.3 142.2,87.3 C142.1,85.4 140.9,84.6 139.9,83.5 C138.1,88.3 137.9,88.9 138.8,82.7 C137.4,82.5 135.9,82.3 134.7,81.9 C133.4,85.5 131.5,90 129,91.3 C130.7,91.9 125.8,94 127.5,95.8 C127.8,95.4 130.6,95.7 131.3,96.2 C131.2,97.4 128.7,96 128.6,97.1 z" fill="#D59658"/>
          <path d="M57.7,93 C59.3,94.3 60,96.5 61.8,97.5 C60,94.5 59.7,90.1 58.8,86.2 C57.7,88.2 58.8,91.6 57.7,93 z" fill="#D59658"/>
          <path d="M145.2,88.8 C145.8,88.2 146.3,87.1 144.8,86.9 C144.7,87.8 144,88.6 145.2,88.8 z" fill="#D59658"/>
          <path d="M143.7,89.2 C142.4,93.4 139.3,95.9 136.9,99 C140.7,99.2 144.7,92.6 143.7,89.2 z" fill="#D59658"/>
          <path d="M147.8,96 C147.4,98.8 145.8,100.3 145.2,102.8 C147.3,101.5 148.3,99.1 149,96.4 C148.5,96.4 148.1,96.2 147.8,96 z" fill="#D59658"/>
          <path d="M160.8,118.8 C164.1,111.1 157.2,111.3 156.5,113.1 C148.3,120.1 148.6,151.1 151.2,159 C151.1,161 152.4,165.4 152.8,166.3 C153.6,168.1 153.7,167.8 154.6,170 C154.4,155.4 153.8,135.9 160.8,118.8 z M158,114.1 C158.3,115.5 158.9,116.7 160.6,115.6 C159.3,119.8 158.4,124.4 156.1,127.7 C156.4,123.8 156.9,118.3 158,114.1 z" fill="#D59658"/>
          <path d="M83.8,60.2 C81.2,64.9 77.1,70.1 75.9,74.9 C80.7,72.4 81.6,64.1 83.8,60.2 z" fill="#D59658"/>
          <path d="M87.5,81.3 C88.1,81.5 87.4,81.8 87.5,82.4 C89.2,82.6 88.7,80.8 89,80.5 C89.2,80 89.3,81.5 90.5,80.1 C90.1,79.6 91,78.1 92.5,76.7 C93,75.5 93.7,74.3 94.7,73 C93.6,72.5 91.8,72.6 90.2,72.6 C88.5,75.9 86.6,78.9 84.4,81.7 C84.5,82.6 83.4,83.7 82,84.5 C81.7,84.8 81.5,85.1 81.2,85.4 C82.4,84.5 83.3,85.3 83.8,84.3 C83.4,84.2 87,83.5 87.5,82.9 C87.1,82 86.6,82.3 87.5,81.3 z" fill="#D59658"/>
          <path d="M84.3,81.7 C83.5,82.7 82.7,83.6 81.9,84.5 C83.3,83.7 84.4,82.6 84.3,81.7 z" fill="#D59658"/>
          <path d="M84.9,85.4 C90.1,82.6 95.2,79.6 97.3,73.7 C95.7,74 93.8,75.3 92.5,76.7 C91.4,79.1 90.6,81.1 87.5,82.8 C87.5,82.8 87.5,82.9 87.4,82.9 C87.4,83 87.5,83 87.5,83.1 C86.4,83.7 85.2,84.1 84.9,85.4 z" fill="#D59658"/>
          <path d="M87.5,82.8 C90.6,81.1 91.4,79.1 92.5,76.7 C91.1,78.1 90.1,79.6 90.5,80.1 C89.3,81.5 89.2,80 89,80.5 C88.7,80.8 89.2,82.5 87.5,82.4 C87.4,81.8 88.1,81.4 87.5,81.3 C86.6,82.3 87,82 87.4,82.9 C87.5,82.9 87.5,82.9 87.5,82.8 z" fill="#D59658"/>
          <path d="M124.4,89.2 C126.8,85.5 129,81.6 127.7,76.8 C127.6,77.2 127.4,77.6 127.3,78 C126.8,79.6 126.2,81.1 125.4,82.6 C124.5,84.8 123.9,87.2 124.4,89.2 z" fill="#D59658"/>
          <path d="M127.2,78 C126.7,79.4 125.9,80.9 125.3,82.6 C126.1,81.1 126.7,79.5 127.2,78 z" fill="#D59658"/>
          <path d="M149.7,122.8 C147.2,125.3 147.6,130.8 144.4,132.6 C144.3,129.6 147.7,126.9 148.2,123.2 C146.4,122.9 146.3,124.3 144.4,124 C142.1,129.6 136.9,132.4 132.7,136.1 C132.6,139.1 132.3,135.1 131.6,138.5 C131.6,138.5 130.9,137.5 130.8,137.2 C123.7,141 119.9,147.9 119.1,157.9 C118.7,153.5 119.6,147.5 121.4,144 C111.8,148.1 114.6,172.6 122.2,174.5 C119.3,172.9 118.1,167.7 118.8,164.7 C120,166.9 119.3,172.2 122.2,173.7 C120.9,169 122.1,159.9 123.3,155.6 C122.4,163.8 126.5,173.1 133.5,177.5 C135.5,177.3 135.5,177.5 136.9,176.7 C136.1,174.5 132.4,162.6 133.9,158.6 C135.9,164.4 134.1,176.6 143.7,175.9 C139.9,161.4 143.8,143.5 148.7,130.7 C149.8,127.7 151.2,126 149.7,122.8 z M138,166.9 C137.2,158.8 138.3,151 141.4,143.9 C141.8,140.5 141.9,138.9 143.7,137.1 C141.4,145.6 138.5,157.6 138,166.9 z" fill="#D59658"/>
          <path d="M65.7,97.9 C66.7,91 65.4,81.8 68.3,76 C68.2,76 68.1,76 67.9,76 C67.2,77 65.9,79.7 64.7,82.8 C63.5,87.9 63.3,93.7 65.7,97.9 z" fill="#D59658"/>
          <path d="M64.7,82.8 C65.9,79.7 67.3,76.9 67.9,76 C67.6,76 67.4,76 67.1,76 C66.2,78 65.3,80.3 64.7,82.8 z" fill="#D59658"/>
          <path d="M158,114.1 C156.9,118.3 156.4,123.8 156.1,127.7 C158.4,124.5 159.3,119.9 160.6,115.6 C159,116.7 158.3,115.4 158,114.1 z" fill="#D59658"/>
          <path d="M184.9,226.2 C183,222.2 182.6,220.7 181.5,218.1 C180.4,215.4 178.1,212.8 176,209.8 C173.9,206.8 167.3,195.2 165.8,191.2 C164.3,187.2 160.9,179.6 160.9,179.6 L158.6,179.8 C158.6,179.8 164.7,198.2 167.5,202.2 C170.3,206.2 174.9,212.1 177.2,214.3 C179.5,216.6 183.3,221.7 183.6,230 C184.1,241.6 179.2,255.2 177.3,257.3 C175.4,259.4 171.8,262.2 171.8,262.2 L171.6,265.4 C171.6,265.4 175.4,263.1 177.7,259.3 C180,255.5 186.4,247 186.6,244.1 C186.8,241.3 186.8,230.1 184.9,226.2 z" fill="#D59658"/>
        </g>
      </g>
      <path d="M23.9,241.3 C23.9,241.3 27.2,251.6 41.8,253.9 C59.7,256.7 75.3,253.1 91.7,256.6 C108.1,260.1 121.9,260.6 131.5,258.5 C141.1,256.5 140.9,253 140.9,253 C140.9,253 140.9,261.2 139.7,265.1 C138.5,269 139.7,285 139.7,285 L33.6,282.4 C33.6,282.4 32.3,279.6 31.2,270.7 C30.3,263.4 23.9,241.3 23.9,241.3 z" fill="#C9D0D1"/>
    </g>
  </g>
</svg>
